<svg width="54" height="15" viewBox="0 0 54 15" fill="none" xmlns="http://www.w3.org/2000/svg">
<path d="M12.68 14L12.661 6.02L8.747 12.594H7.36L3.465 6.191V14H0.577V0.699999H3.123L8.101 8.965L13.003 0.699999H15.53L15.568 14H12.68ZM28.5275 8.927C28.5275 8.965 28.5085 9.231 28.4705 9.725H20.7375C20.8768 10.3583 21.2062 10.8587 21.7255 11.226C22.2448 11.5933 22.8908 11.777 23.6635 11.777C24.1955 11.777 24.6642 11.701 25.0695 11.549C25.4875 11.3843 25.8738 11.131 26.2285 10.789L27.8055 12.499C26.8428 13.601 25.4368 14.152 23.5875 14.152C22.4348 14.152 21.4152 13.9303 20.5285 13.487C19.6418 13.031 18.9578 12.404 18.4765 11.606C17.9952 10.808 17.7545 9.90233 17.7545 8.889C17.7545 7.88833 17.9888 6.989 18.4575 6.191C18.9388 5.38033 19.5912 4.75333 20.4145 4.31C21.2505 3.854 22.1815 3.626 23.2075 3.626C24.2082 3.626 25.1138 3.84133 25.9245 4.272C26.7352 4.70267 27.3685 5.32333 27.8245 6.134C28.2932 6.932 28.5275 7.863 28.5275 8.927ZM23.2265 5.868C22.5552 5.868 21.9915 6.058 21.5355 6.438C21.0795 6.818 20.8008 7.33733 20.6995 7.996H25.7345C25.6332 7.35 25.3545 6.837 24.8985 6.457C24.4425 6.06433 23.8852 5.868 23.2265 5.868ZM36.7138 3.626C37.9805 3.626 39.0001 4.006 39.7728 4.766C40.5581 5.526 40.9508 6.65333 40.9508 8.148V14H37.9868V8.604C37.9868 7.79333 37.8095 7.19167 37.4548 6.799C37.1001 6.39367 36.5871 6.191 35.9158 6.191C35.1685 6.191 34.5731 6.42533 34.1298 6.894C33.6865 7.35 33.4648 8.034 33.4648 8.946V14H30.5008V3.778H33.3318V4.975C33.7245 4.54433 34.2121 4.215 34.7948 3.987C35.3775 3.74633 36.0171 3.626 36.7138 3.626ZM53.9355 3.778V14H51.1235V12.784C50.7309 13.2273 50.2622 13.5693 49.7175 13.81C49.1729 14.038 48.5839 14.152 47.9505 14.152C46.6079 14.152 45.5439 13.7657 44.7585 12.993C43.9732 12.2203 43.5805 11.074 43.5805 9.554V3.778H46.5445V9.117C46.5445 10.7637 47.2349 11.587 48.6155 11.587C49.3249 11.587 49.8949 11.359 50.3255 10.903C50.7562 10.4343 50.9715 9.744 50.9715 8.832V3.778H53.9355Z" fill="white"/>
</svg>
