<svg width="202" height="29" viewBox="0 0 202 29" fill="none" xmlns="http://www.w3.org/2000/svg">
<g style="mix-blend-mode:overlay">
<path d="M9.44 4.4H0.16V-1.90735e-06H23.92V4.4H14.64V28H9.44V4.4ZM47.5147 6.64V28H42.7547V25.28C41.9547 26.24 40.9547 26.9867 39.7547 27.52C38.5547 28.0267 37.2614 28.28 35.8747 28.28C33.0214 28.28 30.768 27.4933 29.1147 25.92C27.488 24.32 26.6747 21.96 26.6747 18.84V6.64H31.6747V18.16C31.6747 20.08 32.1014 21.52 32.9547 22.48C33.8347 23.4133 35.0747 23.88 36.6747 23.88C38.4614 23.88 39.8747 23.3333 40.9147 22.24C41.9814 21.12 42.5147 19.52 42.5147 17.44V6.64H47.5147ZM58.8213 9.76C60.2613 7.52 62.7946 6.4 66.4213 6.4V11.16C65.9946 11.08 65.6079 11.04 65.2613 11.04C63.3146 11.04 61.7946 11.6133 60.7013 12.76C59.6079 13.88 59.0613 15.5067 59.0613 17.64V28H54.0613V6.64H58.8213V9.76ZM82.7828 6.4C85.4761 6.4 87.6361 7.18667 89.2628 8.76C90.8895 10.3333 91.7028 12.6667 91.7028 15.76V28H86.7028V16.4C86.7028 14.5333 86.2628 13.1333 85.3828 12.2C84.5028 11.24 83.2495 10.76 81.6228 10.76C79.7828 10.76 78.3295 11.32 77.2628 12.44C76.1961 13.5333 75.6628 15.12 75.6628 17.2V28H70.6628V6.64H75.4228V9.4C76.2495 8.41333 77.2895 7.66667 78.5428 7.16C79.7961 6.65333 81.2095 6.4 82.7828 6.4ZM114.78 4.36V12.88H128.3V17.28H114.78V28H109.58V-1.90735e-06H130.02V4.36H114.78ZM142.065 6.4C145.212 6.4 147.612 7.16 149.265 8.68C150.945 10.1733 151.785 12.44 151.785 15.48V28H147.065V25.4C146.452 26.3333 145.572 27.0533 144.425 27.56C143.305 28.04 141.945 28.28 140.345 28.28C138.745 28.28 137.345 28.0133 136.145 27.48C134.945 26.92 134.012 26.16 133.345 25.2C132.705 24.2133 132.385 23.1067 132.385 21.88C132.385 19.96 133.092 18.4267 134.505 17.28C135.945 16.1067 138.198 15.52 141.265 15.52H146.785V15.2C146.785 13.7067 146.332 12.56 145.425 11.76C144.545 10.96 143.225 10.56 141.465 10.56C140.265 10.56 139.078 10.7467 137.905 11.12C136.758 11.4933 135.785 12.0133 134.985 12.68L133.025 9.04C134.145 8.18667 135.492 7.53333 137.065 7.08C138.638 6.62667 140.305 6.4 142.065 6.4ZM141.385 24.64C142.638 24.64 143.745 24.36 144.705 23.8C145.692 23.2133 146.385 22.3867 146.785 21.32V18.84H141.625C138.745 18.84 137.305 19.7867 137.305 21.68C137.305 22.5867 137.665 23.3067 138.385 23.84C139.105 24.3733 140.105 24.64 141.385 24.64ZM168.197 28.28C165.984 28.28 163.997 27.8133 162.237 26.88C160.477 25.9467 159.104 24.6533 158.117 23C157.131 21.32 156.637 19.4267 156.637 17.32C156.637 15.2133 157.131 13.3333 158.117 11.68C159.104 10.0267 160.464 8.73333 162.197 7.8C163.957 6.86667 165.957 6.4 168.197 6.4C170.304 6.4 172.144 6.82667 173.717 7.68C175.317 8.53333 176.517 9.76 177.317 11.36L173.477 13.6C172.864 12.6133 172.091 11.88 171.157 11.4C170.251 10.8933 169.251 10.64 168.157 10.64C166.291 10.64 164.744 11.2533 163.517 12.48C162.291 13.68 161.677 15.2933 161.677 17.32C161.677 19.3467 162.277 20.9733 163.477 22.2C164.704 23.4 166.264 24 168.157 24C169.251 24 170.251 23.76 171.157 23.28C172.091 22.7733 172.864 22.0267 173.477 21.04L177.317 23.28C176.491 24.88 175.277 26.12 173.677 27C172.104 27.8533 170.277 28.28 168.197 28.28ZM201.407 17.44C201.407 17.7867 201.38 18.28 201.327 18.92H184.567C184.86 20.4933 185.62 21.7467 186.847 22.68C188.1 23.5867 189.647 24.04 191.487 24.04C193.834 24.04 195.767 23.2667 197.287 21.72L199.967 24.8C199.007 25.9467 197.794 26.8133 196.327 27.4C194.86 27.9867 193.207 28.28 191.367 28.28C189.02 28.28 186.954 27.8133 185.167 26.88C183.38 25.9467 181.994 24.6533 181.007 23C180.047 21.32 179.567 19.4267 179.567 17.32C179.567 15.24 180.034 13.3733 180.967 11.72C181.927 10.04 183.247 8.73333 184.927 7.8C186.607 6.86667 188.5 6.4 190.607 6.4C192.687 6.4 194.54 6.86667 196.167 7.8C197.82 8.70667 199.1 10 200.007 11.68C200.94 13.3333 201.407 15.2533 201.407 17.44ZM190.607 10.4C189.007 10.4 187.647 10.88 186.527 11.84C185.434 12.7733 184.767 14.0267 184.527 15.6H196.647C196.434 14.0533 195.78 12.8 194.687 11.84C193.594 10.88 192.234 10.4 190.607 10.4Z" fill="white"/>
</g>
</svg>
